<svg xmlns="http://www.w3.org/2000/svg" viewBox="0 0 717.46 81.7"><defs><style>.a{fill:#e5594e;}.b{fill:#fff;}</style></defs><title>vm-heading</title><polygon class="a" points="248 22 248 0 0 0 0 77 248 77 248 56.13 264.96 39.08 248 22"/><path class="b" d="M34.42,55h-3.6L25,26.52h4.32L32.58,46.4h.08l3.28-19.88h4.32Z" transform="translate(-1 -1.5)"/><path class="b" d="M43.74,26.52H55.9v3.84H47.82v8.36h7v3.84h-7v8.36H55.9V55H43.74Z" transform="translate(-1 -1.5)"/><path class="b" d="M59.58,26.52h4.08v12.2h5V26.52h4.08V55H68.7V42.32h-5V55H59.58Z" transform="translate(-1 -1.5)"/><path class="b" d="M77.78,26.52h4.08V55H77.78Z" transform="translate(-1 -1.5)"/><path class="b" d="M99.82,48.64a6.5,6.5,0,0,1-.5,2.52,6.61,6.61,0,0,1-1.38,2.1,6.83,6.83,0,0,1-2.06,1.44,6,6,0,0,1-2.54.54A9.15,9.15,0,0,1,91,54.92a5.73,5.73,0,0,1-2.16-1.1,5.94,5.94,0,0,1-1.58-2.06,7.42,7.42,0,0,1-.62-3.24V32.84a6.93,6.93,0,0,1,.48-2.6,6.11,6.11,0,0,1,1.36-2.08,6.33,6.33,0,0,1,2.1-1.38,7.06,7.06,0,0,1,2.7-.5,6.7,6.7,0,0,1,2.6.5,6.23,6.23,0,0,1,2.08,1.4,6.45,6.45,0,0,1,1.38,2.16,7.37,7.37,0,0,1,.5,2.74v1.6H95.74V33.32a3.3,3.3,0,0,0-.68-2.08,2.21,2.21,0,0,0-1.84-.88,2.07,2.07,0,0,0-2,.94,5,5,0,0,0-.5,2.38V48.24a3.77,3.77,0,0,0,.54,2.08,2.13,2.13,0,0,0,1.94.84A3,3,0,0,0,94,51a2.35,2.35,0,0,0,.84-.46,2.31,2.31,0,0,0,.62-.88,3.56,3.56,0,0,0,.24-1.4v-1.4h4.08Z" transform="translate(-1 -1.5)"/><path class="b" d="M104.18,26.52h4.08v24.4h8.08V55H104.18Z" transform="translate(-1 -1.5)"/><path class="b" d="M120,26.52h12.16v3.84H124.1v8.36h7v3.84h-7v8.36h8.08V55H120Z" transform="translate(-1 -1.5)"/><path class="b" d="M142.54,26.52h3.92l5.24,15.08h.08L157,26.52h4V55h-4.08V37.68h-.08l-4,12.24h-2l-4-12.24h-.08V55h-4.08Z" transform="translate(-1 -1.5)"/><path class="b" d="M166.06,26.52h12.16v3.84h-8.08v8.36h7v3.84h-7v8.36h8.08V55H166.06Z" transform="translate(-1 -1.5)"/><path class="b" d="M182.14,26.52h6a7,7,0,0,1,5.32,1.94,7.56,7.56,0,0,1,1.84,5.42V47.2q0,4-1.94,5.9a7.65,7.65,0,0,1-5.58,1.9h-5.68Zm4.08,24.64h1.88a3,3,0,0,0,2.44-.86,4.16,4.16,0,0,0,.72-2.7V33.88a4.31,4.31,0,0,0-.68-2.6,2.9,2.9,0,0,0-2.48-.92h-1.88Z" transform="translate(-1 -1.5)"/><path class="b" d="M200.58,26.52h4.08V55h-4.08Z" transform="translate(-1 -1.5)"/><path class="b" d="M214.42,26.52h3.4L224.18,55H220.1l-1.2-6.12h-5.56L212.14,55h-4.08Zm1.72,8.2h-.08l-2,10.32h4.08Z" transform="translate(-1 -1.5)"/><path class="b" d="M324,28.33v-.21c2.91-.57,3.15-1.26,1.41-5.7l-.81-2.07h-7.08l-.66,1.74c-2,5.37-.63,5.64,2.67,6v.21H311v-.24c1.47-.33,2.25-.6,3-2.28L322.31,6.1h1.11l7.35,17.28c1.14,2.67,1.62,4.41,4.11,4.71v.24Zm-3-17.28-3.12,8.4h6.39Z" transform="translate(-1 -1.5)"/><path class="b" d="M362.42,12.64h-.21c-.3-5.07-3.27-5.52-7.86-5.52-2.1,0-2.73.24-2.73,1.89v8c3.63.06,5.37-.81,6-4.89h.24V22.36h-.24c-.6-4.08-2.34-4.95-6-4.89v5c0,4-.24,5.28,3.63,5.67v.21H343.73v-.21c3.36-.36,3.21-1.5,3.21-4.92V11.8c0-3.42.15-4.56-3.21-4.92V6.67h19.35Z" transform="translate(-1 -1.5)"/><path class="b" d="M376,28.78V26.5c-1.26.78-3.15,2.19-5.64,2.19A4.14,4.14,0,0,1,367,27c-.87-1.2-.75-2.82-.75-4.23V17.44c0-2.37.12-3.18-2.22-3.42v-.21h6.15v8.4c0,2.34.48,4.53,3.09,4.53A6.09,6.09,0,0,0,376,26V17.44c0-2.37.12-3.18-2.22-3.42v-.21H380V24.73c0,1.62.42,2,1.74,2.25v.15Z" transform="translate(-1 -1.5)"/><path class="b" d="M383.54,28.33v-.21c2.34-.24,2.22-1,2.22-3.42V10.15c0-1.62-.42-2-1.74-2.25V7.75l5.67-1.65V24.7c0,2.37-.12,3.18,2.22,3.42v.21Z" transform="translate(-1 -1.5)"/><path class="b" d="M393.14,28.33v-.21c2.34-.24,2.22-1,2.22-3.42V10.15c0-1.62-.42-2-1.74-2.25V7.75l5.67-1.65V24.7c0,2.37-.12,3.18,2.22,3.42v.21Z" transform="translate(-1 -1.5)"/><path class="b" d="M403.85,22.69V19.51h7.44v3.18Z" transform="translate(-1 -1.5)"/><path class="b" d="M422,28.9c-3.15,0-4.62-1.08-5.67-1.08-.78,0-1.08.54-1.23,1.14h-.36v-7.5h.36c.72,3.39,2.76,7,7,7s4.47-3.51,4.47-4c0-5.7-11.58-4.26-11.58-12.12,0-1.92,1-6.15,7-6.15,2.64,0,4.17,1.08,5.13,1.08s1.14-.48,1.35-1.14h.42v6.51h-.33c-.75-2.43-2.82-6.06-6.75-6.06-1.89,0-3.87,1.11-3.87,3.45,0,5.94,11.91,4.11,11.91,12.33C429.86,25.15,427.79,28.9,422,28.9Z" transform="translate(-1 -1.5)"/><path class="b" d="M439.88,28.78a7.31,7.31,0,0,1-7.29-7.56,8,8,0,0,1,7.65-7.86c3.69,0,5.82,2.19,5.85,6.09h-9.75c0,3.12,1.89,6.93,6.51,6.93,1.56,0,2.55-1,3.54-1.89l.21.15C445,26.83,442.76,28.78,439.88,28.78Zm-.33-15c-1.8,0-2.88,2.85-3.15,5.19l5.64-.21C441.86,16.42,441.26,13.78,439.55,13.78Z" transform="translate(-1 -1.5)"/><path class="b" d="M459.53,17.5c-1.92,0-1.89-1.95-2.94-1.95-.54,0-2.28.75-2.28,3.48v4.86c0,2.94-.15,4,2.73,4.23v.21h-8.88v-.21c2.34-.24,2.22-1,2.22-3.42V17.41c0-1.62-.42-2-1.74-2.25V15l5.67-1.65v3.33c.78-1.35,2.58-3.33,4.59-3.33a2.25,2.25,0,0,1,2.43,2.25A1.78,1.78,0,0,1,459.53,17.5Z" transform="translate(-1 -1.5)"/><path class="b" d="M476.6,15.49,470.87,28.9H470L465,17c-.72-1.68-1-2.82-2.61-3v-.21h7.83V14c-1.86.36-2,.9-.9,3.66l2.88,7,2.55-6.78c1.26-3.45.36-3.63-1.74-3.87v-.21h5.52V14A2.13,2.13,0,0,0,476.6,15.49Z" transform="translate(-1 -1.5)"/><path class="b" d="M479.33,28.33v-.21c2.34-.24,2.22-1,2.22-3.42V17.41c0-1.62-.42-2-1.74-2.25V15l5.67-1.65V24.7c0,2.37-.12,3.18,2.22,3.42v.21Zm4.17-17.79a2.11,2.11,0,0,1-2.16-2.13,2.15,2.15,0,0,1,4.29,0A2.12,2.12,0,0,1,483.5,10.54Z" transform="translate(-1 -1.5)"/><path class="b" d="M496.7,28.78a7.31,7.31,0,0,1-7.29-7.56c0-4.32,4.17-7.86,8.22-7.86,2.4,0,5,1.08,5,3.27a1.66,1.66,0,0,1-1.62,1.8c-1.74,0-1.83-.78-1.83-3.09a1.6,1.6,0,0,0-1.68-1.59c-3.06,0-4.11,3.63-4.11,6.54,0,3.27,1.77,6.09,6.33,6.09a5.62,5.62,0,0,0,3.54-1.65l.21.15C501.8,26.89,499.58,28.78,496.7,28.78Z" transform="translate(-1 -1.5)"/><path class="b" d="M513,28.78a7.31,7.31,0,0,1-7.29-7.56,8,8,0,0,1,7.65-7.86c3.69,0,5.82,2.19,5.85,6.09h-9.75c0,3.12,1.89,6.93,6.51,6.93,1.56,0,2.55-1,3.54-1.89l.21.15C518.15,26.83,515.87,28.78,513,28.78Zm-.33-15c-1.8,0-2.88,2.85-3.15,5.19l5.64-.21C515,16.42,514.37,13.78,512.66,13.78Z" transform="translate(-1 -1.5)"/><path class="b" d="M529.7,28.33v-.21c3.36-.36,3.21-1.5,3.21-4.92V11.8c0-3.42.15-4.56-3.21-4.92V6.67h11.1v.21c-3.36.36-3.21,1.5-3.21,4.92V23.2c0,3.42-.15,4.56,3.21,4.92v.21Z" transform="translate(-1 -1.5)"/><path class="b" d="M552.11,28.33v-.21c2.34-.24,2.22-1,2.22-3.42V19.21c0-2.22-.48-3.9-3.15-3.9a5.85,5.85,0,0,0-2.67.84V24.7c0,2.37-.12,3.18,2.22,3.42v.21h-8.37v-.21c2.34-.24,2.22-1,2.22-3.42V17.41c0-1.62-.42-2-1.74-2.25V15l5.67-1.65v2.28a10.83,10.83,0,0,1,5.7-2.1,4.14,4.14,0,0,1,3.24,1.62c.87,1.2.81,2.82.81,4.23V24.7c0,2.37-.12,3.18,2.22,3.42v.21Z" transform="translate(-1 -1.5)"/><path class="b" d="M567.14,28.78c-3.24,0-3.39-2.52-3.42-3.15V15.13h-1.89v-.78a26.1,26.1,0,0,0,5.49-6.12h.33v5.58h4.08v1.32h-4.08v9.72c0,.63,0,2.22,1.62,2.22a3.05,3.05,0,0,0,2.25-1.65l.24.12C571.4,26.41,569.75,28.78,567.14,28.78Z" transform="translate(-1 -1.5)"/><path class="b" d="M580.94,28.78a7.3,7.3,0,0,1-7.29-7.56,8,8,0,0,1,7.65-7.86c3.69,0,5.82,2.19,5.85,6.09H577.4c0,3.12,1.89,6.93,6.51,6.93,1.56,0,2.55-1,3.54-1.89l.21.15C586.1,26.83,583.82,28.78,580.94,28.78Zm-.33-15c-1.8,0-2.88,2.85-3.15,5.19l5.64-.21C582.92,16.42,582.32,13.78,580.61,13.78Z" transform="translate(-1 -1.5)"/><path class="b" d="M600.59,17.5c-1.92,0-1.89-1.95-2.94-1.95-.54,0-2.28.75-2.28,3.48v4.86c0,2.94-.15,4,2.73,4.23v.21h-8.88v-.21c2.34-.24,2.22-1,2.22-3.42V17.41c0-1.62-.42-2-1.74-2.25V15l5.67-1.65v3.33c.78-1.35,2.58-3.33,4.59-3.33a2.25,2.25,0,0,1,2.43,2.25A1.78,1.78,0,0,1,600.59,17.5Z" transform="translate(-1 -1.5)"/><path class="b" d="M615.71,28.78c-2,0-2.28-1.2-2.55-2.67-2.49,2.52-4.71,2.67-5.46,2.67a3.12,3.12,0,0,1-3.3-3.18c0-3.3,4.11-4.5,8.88-5.91V17c0-1.86-.54-3.21-3.24-3.21-1.44,0-2.28.87-2.28,1.5s1,1,1,2.25a1.89,1.89,0,0,1-3.75-.39c0-2,2-3.78,5.85-3.78,5,0,6.27,2.07,6.27,6.75v6.06a1,1,0,0,0,1.08,1.17c.84,0,1.74-1.32,2-1.62l.18.12A5.29,5.29,0,0,1,615.71,28.78Zm-7.17-4.2c0,1.17.63,2.52,2,2.52a3.88,3.88,0,0,0,2.64-1.65l0-5.31C612,20.44,608.54,21.49,608.54,24.58Z" transform="translate(-1 -1.5)"/><path class="b" d="M628.55,28.78a7.31,7.31,0,0,1-7.29-7.56c0-4.32,4.17-7.86,8.22-7.86,2.4,0,5,1.08,5,3.27a1.66,1.66,0,0,1-1.62,1.8c-1.74,0-1.83-.78-1.83-3.09a1.6,1.6,0,0,0-1.68-1.59c-3.06,0-4.11,3.63-4.11,6.54,0,3.27,1.77,6.09,6.33,6.09a5.62,5.62,0,0,0,3.54-1.65l.21.15C633.65,26.89,631.43,28.78,628.55,28.78Z" transform="translate(-1 -1.5)"/><path class="b" d="M642.56,28.78c-3.24,0-3.39-2.52-3.42-3.15V15.13h-1.89v-.78a26.1,26.1,0,0,0,5.49-6.12h.33v5.58h4.08v1.32h-4.08v9.72c0,.63,0,2.22,1.62,2.22a3.05,3.05,0,0,0,2.25-1.65l.24.12C646.82,26.41,645.17,28.78,642.56,28.78Z" transform="translate(-1 -1.5)"/><path class="b" d="M648.56,28.33v-.21c2.34-.24,2.22-1,2.22-3.42V17.41c0-1.62-.42-2-1.74-2.25V15l5.67-1.65V24.7c0,2.37-.12,3.18,2.22,3.42v.21Zm4.17-17.79a2.11,2.11,0,0,1-2.16-2.13,2.15,2.15,0,0,1,4.29,0A2.12,2.12,0,0,1,652.73,10.54Z" transform="translate(-1 -1.5)"/><path class="b" d="M671.92,15.49,666.19,28.9h-.84L660.29,17c-.72-1.68-1-2.82-2.61-3v-.21h7.83V14c-1.86.36-2,.9-.9,3.66l2.88,7L670,17.89c1.26-3.45.36-3.63-1.74-3.87v-.21h5.52V14A2.13,2.13,0,0,0,671.92,15.49Z" transform="translate(-1 -1.5)"/><path class="b" d="M682.07,28.78a7.3,7.3,0,0,1-7.29-7.56,8,8,0,0,1,7.65-7.86c3.69,0,5.82,2.19,5.85,6.09h-9.75c0,3.12,1.89,6.93,6.51,6.93,1.56,0,2.55-1,3.54-1.89l.21.15C687.22,26.83,684.95,28.78,682.07,28.78Zm-.33-15c-1.8,0-2.88,2.85-3.15,5.19l5.64-.21C684,16.42,683.45,13.78,681.74,13.78Z" transform="translate(-1 -1.5)"/><path class="b" d="M331.17,76.33v-.21c3.36-.36,3.21-1.5,3.21-4.92V56.05h-.21l-8.55,20.28H325L316.41,56h-.21V72.58c0,2.43.6,3.33,3.33,3.54v.21h-7.08v-.21c2.61-.24,3-.87,3-2.94V57.52c0-1.86-.6-2.46-2.94-2.64v-.21h8l6.72,15.81,6.66-15.81h8.34v.21c-3.36.36-3.21,1.5-3.21,4.92V71.2c0,3.42-.15,4.56,3.21,4.92v.21Z" transform="translate(-1 -1.5)"/><path class="b" d="M355.32,76.78c-2,0-2.28-1.2-2.55-2.67-2.49,2.52-4.71,2.67-5.46,2.67A3.12,3.12,0,0,1,344,73.6c0-3.3,4.11-4.5,8.88-5.91V65c0-1.86-.54-3.21-3.24-3.21-1.44,0-2.28.87-2.28,1.5s1,1,1,2.25a1.89,1.89,0,0,1-3.75-.39c0-2,2-3.78,5.85-3.78,5,0,6.27,2.07,6.27,6.75v6.06a1,1,0,0,0,1.08,1.17c.84,0,1.74-1.32,2-1.62l.18.12A5.29,5.29,0,0,1,355.32,76.78Zm-7.17-4.2c0,1.17.63,2.52,2,2.52a3.88,3.88,0,0,0,2.64-1.65l0-5.31C351.63,68.44,348.15,69.49,348.15,72.58Z" transform="translate(-1 -1.5)"/><path class="b" d="M371.76,65.5c-1.92,0-1.89-2-2.94-2-.54,0-2.28.75-2.28,3.48v4.86c0,2.94-.15,4,2.73,4.23v.21h-8.88v-.21c2.34-.24,2.22-1,2.22-3.42V65.41c0-1.62-.42-2-1.74-2.25V63l5.67-1.65v3.33c.78-1.35,2.58-3.33,4.59-3.33a2.25,2.25,0,0,1,2.43,2.25A1.78,1.78,0,0,1,371.76,65.5Z" transform="translate(-1 -1.5)"/><path class="b" d="M385,76.33v-.21c1.5-.24,1.83-.75.66-2.4l-3.45-4.92L381.09,70v2.7c0,2.37-.12,3.18,2.22,3.42v.21h-8.37v-.21c2.34-.24,2.22-1,2.22-3.42V58.15c0-1.62-.42-2-1.74-2.25v-.15l5.67-1.65V69.37l4.68-4.68c1-1,1.68-2.46-1-2.67v-.21h6.42V62a4.62,4.62,0,0,0-2.76,1.08,29.56,29.56,0,0,0-3.57,3.39l3.42,4.74c3,4.14,3.54,4.56,5.4,4.89v.21Z" transform="translate(-1 -1.5)"/><path class="b" d="M400.83,76.78a7.3,7.3,0,0,1-7.29-7.56,8,8,0,0,1,7.65-7.86c3.69,0,5.82,2.19,5.85,6.09h-9.75c0,3.12,1.89,6.93,6.51,6.93,1.56,0,2.55-1,3.54-1.89l.21.15C406,74.83,403.71,76.78,400.83,76.78Zm-.33-15c-1.8,0-2.88,2.85-3.15,5.19l5.64-.21C402.81,64.42,402.21,61.78,400.5,61.78Z" transform="translate(-1 -1.5)"/><path class="b" d="M414.63,76.78c-3.24,0-3.39-2.52-3.42-3.15V63.13h-1.89v-.78a26.08,26.08,0,0,0,5.49-6.12h.33v5.58h4.08v1.32h-4.08v9.72c0,.63,0,2.22,1.62,2.22A3.05,3.05,0,0,0,419,73.42l.24.12C418.89,74.41,417.24,76.78,414.63,76.78Z" transform="translate(-1 -1.5)"/><path class="b" d="M420.63,76.33v-.21c2.34-.24,2.22-1,2.22-3.42V65.41c0-1.62-.42-2-1.74-2.25V63l5.67-1.65V72.7c0,2.37-.12,3.18,2.22,3.42v.21Zm4.17-17.79a2.11,2.11,0,0,1-2.16-2.13,2.15,2.15,0,0,1,4.29,0A2.12,2.12,0,0,1,424.8,58.54Z" transform="translate(-1 -1.5)"/><path class="b" d="M440,76.33v-.21c2.34-.24,2.22-1,2.22-3.42V67.21c0-2.22-.48-3.9-3.15-3.9a5.85,5.85,0,0,0-2.67.84V72.7c0,2.37-.12,3.18,2.22,3.42v.21h-8.37v-.21c2.34-.24,2.22-1,2.22-3.42V65.41c0-1.62-.42-2-1.74-2.25V63l5.67-1.65v2.28a10.82,10.82,0,0,1,5.7-2.1,4.14,4.14,0,0,1,3.24,1.62c.87,1.2.81,2.82.81,4.23V72.7c0,2.37-.12,3.18,2.22,3.42v.21Z" transform="translate(-1 -1.5)"/><path class="b" d="M464.88,61.54a1.92,1.92,0,0,1-2.1-1.65,2.74,2.74,0,0,0-1.8,2.52,4,4,0,0,1,1.77,3.48c0,3.3-3.15,5.13-6.18,5.13a9.23,9.23,0,0,1-2.49-.36,2.43,2.43,0,0,0-.66,1.29c0,3.12,12.09-1.65,12.09,4.62,0,4.5-6.9,6.63-10.62,6.63-2,0-5.31-.75-5.31-3.33,0-1.92,2.67-3.18,4.29-3.75-1.56-.3-3.45-1-3.45-2.58,0-1.41,2-2.4,3.27-3.06a4.48,4.48,0,0,1-3.24-4.11c0-3.42,3.3-5,6.36-5a8.14,8.14,0,0,1,3.72.81,3.94,3.94,0,0,1,3.81-3.84c1.68,0,2.28.93,2.28,1.59A1.72,1.72,0,0,1,464.88,61.54Zm-5.76,14.55-4.35.15A3.41,3.41,0,0,0,452.91,79c0,2.34,2.94,3.15,4.62,3.15,2,0,5.16-.81,5.16-3.48C462.69,76.39,460.89,76.09,459.12,76.09ZM456.6,61.75c-2.22,0-2.52,2.28-2.52,4.47,0,2.37.39,4.41,2.52,4.41,2.28,0,2.52-2.46,2.52-4.41C459.12,64.66,459,61.75,456.6,61.75Z" transform="translate(-1 -1.5)"/><path class="b" d="M484.82,69.43v6.9h-2.25v-6.9h-6.87V67.18h6.87v-6.9h2.25v6.9h6.87v2.25Z" transform="translate(-1 -1.5)"/><path class="b" d="M519.2,74.35c-3.3,2-7.44,2-11.22,2h-6.33v-.21c3.36-.36,3.21-1.5,3.21-4.92V59.8c0-3.42.15-4.56-3.21-4.92v-.21h6.87c5.31,0,15.78.66,15.78,10.59A10.47,10.47,0,0,1,519.2,74.35Zm-9.66-19.17V73.6c0,1.53.36,2.22,2.22,2.22,3.81,0,7.71-2.67,7.71-9.75C519.47,58.63,514.38,55.18,509.54,55.18Z" transform="translate(-1 -1.5)"/><path class="b" d="M534.26,76.78A7.3,7.3,0,0,1,527,69.22a8,8,0,0,1,7.65-7.86c3.69,0,5.82,2.19,5.85,6.09h-9.75c0,3.12,1.89,6.93,6.51,6.93,1.56,0,2.55-1,3.54-1.89l.21.15C539.42,74.83,537.14,76.78,534.26,76.78Zm-.33-15c-1.8,0-2.88,2.85-3.15,5.19l5.64-.21C536.24,64.42,535.64,61.78,533.93,61.78Z" transform="translate(-1 -1.5)"/><path class="b" d="M548.75,76.78a19.07,19.07,0,0,1-4.2-1c-.45,0-.72.24-1.11.93h-.27V72h.33c.33,1.2,1.32,4.35,4.92,4.35a2.51,2.51,0,0,0,2.67-2.52c0-3-8-2.91-8-7.92,0-2.7,2.37-4.53,5.1-4.53,1.53,0,2.91.75,3.51.75a1.05,1.05,0,0,0,1-.66h.18v4.11h-.24c-.78-2.37-2.4-3.75-4.35-3.75A2.32,2.32,0,0,0,545.88,64c0,3.39,8,2.88,8,8A4.93,4.93,0,0,1,548.75,76.78Z" transform="translate(-1 -1.5)"/><path class="b" d="M555.62,76.33v-.21c2.34-.24,2.22-1,2.22-3.42V65.41c0-1.62-.42-2-1.74-2.25V63l5.67-1.65V72.7c0,2.37-.12,3.18,2.22,3.42v.21Zm4.17-17.79a2.11,2.11,0,0,1-2.16-2.13,2.15,2.15,0,0,1,4.29,0A2.12,2.12,0,0,1,559.79,58.54Z" transform="translate(-1 -1.5)"/><path class="b" d="M580.61,61.54a1.92,1.92,0,0,1-2.1-1.65,2.74,2.74,0,0,0-1.8,2.52,4,4,0,0,1,1.77,3.48c0,3.3-3.15,5.13-6.18,5.13a9.23,9.23,0,0,1-2.49-.36,2.43,2.43,0,0,0-.66,1.29c0,3.12,12.09-1.65,12.09,4.62,0,4.5-6.9,6.63-10.62,6.63-2,0-5.31-.75-5.31-3.33,0-1.92,2.67-3.18,4.29-3.75-1.56-.3-3.45-1-3.45-2.58,0-1.41,2-2.4,3.27-3.06a4.48,4.48,0,0,1-3.24-4.11c0-3.42,3.3-5,6.36-5a8.14,8.14,0,0,1,3.72.81,3.94,3.94,0,0,1,3.81-3.84c1.68,0,2.28.93,2.28,1.59A1.72,1.72,0,0,1,580.61,61.54Zm-5.76,14.55-4.35.15A3.41,3.41,0,0,0,568.64,79c0,2.34,2.94,3.15,4.62,3.15,2,0,5.16-.81,5.16-3.48C578.42,76.39,576.62,76.09,574.85,76.09Zm-2.52-14.34c-2.22,0-2.52,2.28-2.52,4.47,0,2.37.39,4.41,2.52,4.41,2.28,0,2.52-2.46,2.52-4.41C574.85,64.66,574.7,61.75,572.33,61.75Z" transform="translate(-1 -1.5)"/><path class="b" d="M592.19,76.33v-.21c2.34-.24,2.22-1,2.22-3.42V67.21c0-2.22-.48-3.9-3.15-3.9a5.85,5.85,0,0,0-2.67.84V72.7c0,2.37-.12,3.18,2.22,3.42v.21h-8.37v-.21c2.34-.24,2.22-1,2.22-3.42V65.41c0-1.62-.42-2-1.74-2.25V63l5.67-1.65v2.28a10.82,10.82,0,0,1,5.7-2.1,4.14,4.14,0,0,1,3.24,1.62c.87,1.2.81,2.82.81,4.23V72.7c0,2.37-.12,3.18,2.22,3.42v.21Z" transform="translate(-1 -1.5)"/><path class="b" d="M622.31,76.33v-.21c2.91-.57,3.15-1.26,1.41-5.7l-.81-2.07h-7.08l-.66,1.74c-2,5.37-.63,5.64,2.67,6v.21h-8.58v-.24c1.47-.33,2.25-.6,3-2.28L620.6,54.1h1.11l7.35,17.28c1.14,2.67,1.62,4.41,4.11,4.71v.24Zm-3-17.28-3.12,8.4h6.39Z" transform="translate(-1 -1.5)"/><path class="b" d="M649.19,61.54a1.92,1.92,0,0,1-2.1-1.65,2.74,2.74,0,0,0-1.8,2.52,4,4,0,0,1,1.77,3.48c0,3.3-3.15,5.13-6.18,5.13a9.23,9.23,0,0,1-2.49-.36,2.43,2.43,0,0,0-.66,1.29c0,3.12,12.09-1.65,12.09,4.62,0,4.5-6.9,6.63-10.62,6.63-2,0-5.31-.75-5.31-3.33,0-1.92,2.67-3.18,4.29-3.75-1.56-.3-3.45-1-3.45-2.58,0-1.41,2-2.4,3.27-3.06a4.48,4.48,0,0,1-3.24-4.11c0-3.42,3.3-5,6.36-5a8.14,8.14,0,0,1,3.72.81,3.94,3.94,0,0,1,3.81-3.84c1.68,0,2.28.93,2.28,1.59A1.72,1.72,0,0,1,649.19,61.54Zm-5.76,14.55-4.35.15A3.41,3.41,0,0,0,637.22,79c0,2.34,2.94,3.15,4.62,3.15,2,0,5.16-.81,5.16-3.48C647,76.39,645.2,76.09,643.43,76.09Zm-2.52-14.34c-2.22,0-2.52,2.28-2.52,4.47,0,2.37.39,4.41,2.52,4.41,2.28,0,2.52-2.46,2.52-4.41C643.43,64.66,643.28,61.75,640.91,61.75Z" transform="translate(-1 -1.5)"/><path class="b" d="M658.82,76.78a7.3,7.3,0,0,1-7.29-7.56,8,8,0,0,1,7.65-7.86c3.69,0,5.82,2.19,5.85,6.09h-9.75c0,3.12,1.89,6.93,6.51,6.93,1.56,0,2.55-1,3.54-1.89l.21.15C664,74.83,661.7,76.78,658.82,76.78Zm-.33-15c-1.8,0-2.88,2.85-3.15,5.19l5.64-.21C660.8,64.42,660.2,61.78,658.49,61.78Z" transform="translate(-1 -1.5)"/><path class="b" d="M676.85,76.33v-.21c2.34-.24,2.22-1,2.22-3.42V67.21c0-2.22-.48-3.9-3.15-3.9a5.85,5.85,0,0,0-2.67.84V72.7c0,2.37-.12,3.18,2.22,3.42v.21H667.1v-.21c2.34-.24,2.22-1,2.22-3.42V65.41c0-1.62-.42-2-1.74-2.25V63l5.67-1.65v2.28a10.82,10.82,0,0,1,5.7-2.1,4.14,4.14,0,0,1,3.24,1.62c.87,1.2.81,2.82.81,4.23V72.7c0,2.37-.12,3.18,2.22,3.42v.21Z" transform="translate(-1 -1.5)"/><path class="b" d="M694.13,76.78a7.3,7.3,0,0,1-7.29-7.56c0-4.32,4.17-7.86,8.22-7.86,2.4,0,5,1.08,5,3.27a1.66,1.66,0,0,1-1.62,1.8c-1.74,0-1.83-.78-1.83-3.09a1.6,1.6,0,0,0-1.68-1.59c-3.06,0-4.11,3.63-4.11,6.54,0,3.27,1.77,6.09,6.33,6.09a5.62,5.62,0,0,0,3.54-1.65l.21.15C699.23,74.89,697,76.78,694.13,76.78Z" transform="translate(-1 -1.5)"/><path class="b" d="M716.57,63.49,710.78,77c-1.77,4.14-2.28,6.09-5.25,6.09-1.89,0-3.57-.87-3.57-2.13a1.5,1.5,0,0,1,1.5-1.5c1.65,0,2.34,2.31,3.33,2.31,1.26,0,2.28-2.19,2.61-2.94l.72-1.71L704.93,65c-.72-1.65-1-2.82-2.61-3v-.21h7.83V62c-1.86.36-2,.9-.9,3.66l2.88,7,2.55-6.78c1.26-3.45.36-3.63-1.74-3.87v-.21h5.52V62A2.16,2.16,0,0,0,716.57,63.49Z" transform="translate(-1 -1.5)"/></svg>