<?xml version="1.0" encoding="utf-8"?>
<!-- Generator: Adobe Illustrator 22.1.0, SVG Export Plug-In . SVG Version: 6.00 Build 0)  -->
<svg version="1.1" id="Layer_1" xmlns="http://www.w3.org/2000/svg" xmlns:xlink="http://www.w3.org/1999/xlink" x="0px" y="0px"
	 viewBox="0 0 512 512" style="enable-background:new 0 0 512 512;" xml:space="preserve">
<style type="text/css">
	.st0{fill:#FFFFFF;}
</style>
<g>
	<path class="st0" d="M22.3,166.2L65.2,108h424.4V95.9v249.9l-42.8,58.2H22.3V166.2z M55,87.6L2,158.3v266.1h455l53-70.7V87.6H55z"
		/>
	<polygon class="st0" points="78,192.2 95.3,166.2 113.8,166.2 158.4,281.2 202.7,166.2 250.2,166.2 176.8,345.8 138.6,345.8 	"/>
	<path class="st0" d="M219.2,266.6l21.8-53.1l20.5,0.2l1.5,23c8.2-17.4,25.6-26.6,42.2-26.6c23.6,0,35.6,11.7,40.5,28.4
		c8.8-17.1,24.8-28.4,44.6-28.4c33.5,0,43.7,23.9,43.7,56v48.2L413.2,343h-24.4v-70.6c0-18-3.8-26.3-16.6-26.3
		c-12.8,0-23,11.1-23,28.7V343H304v-70.6c0-18-3.5-26.3-16.6-26.3c-12.8,0-23,11.1-23,28.7V343h-45.2V266.6z"/>
</g>
</svg>
